# xmcd
#
# Track frame offsets: 
#        150
#        14325
#        29288
#        45627
#        63098
#        80676
#        94721
#        110612
#        126023
#        140017
#        154740
#        174016
#        189655
#        205162
#        217447
#        235559
#        249241
#        263090
#
# Disc length: 3721 seconds
#
# Revision: 0
# Processed by: cddbd v1.5.2PL0 Copyright (c) Steve Scherf et al.
# Submitted via: ExactAudioCopyFreeDBPlugin 1.0
#
DISCID=f20e8712
DTITLE=Marsimoto - Grüner Samt
DYEAR=2012
DGENRE=Rap
TTITLE0=Grüner Samt
TTITLE1=Wellness
TTITLE2=Der Springende Punkt
TTITLE3=Indianer
TTITLE4=Ich Tarzan Du Jane
TTITLE5=Grünes Haus
TTITLE6=Marsi Der Zigeuener
TTITLE7=Mein Kumpel Spalding
TTITLE8=Alice im WLAN Land
TTITLE9=I got 5
TTITLE10=Absinth
TTITLE11=Blaue Lagune
TTITLE12=Angst
TTITLE13=Wo ist der Beat
TTITLE14=Für Uwe
TTITLE15=Der Sänger von Björk
TTITLE16=Green Granada
TTITLE17=Cuba Clubbing Junior ('I hate Techno' Remix)
EXTD=
EXTT0=
EXTT1=
EXTT2=
EXTT3=
EXTT4=
EXTT5=
EXTT6=
EXTT7=
EXTT8=
EXTT9=
EXTT10=
EXTT11=
EXTT12=
EXTT13=
EXTT14=
EXTT15=
EXTT16=
EXTT17=
PLAYORDER=
